# 3ds Max Wavefront OBJ Exporter v0.97b - (c)2007 guruware
# File Created: 05.07.2020 23:40:09

mtllib ground.mtl

#
# object Plane002
#

v  -113646.5313 -5510.4063 290935.7813
v  -113646.5313 -5510.4063 434019.5000
v  7590.3984 -5510.4063 290935.7813
v  7590.3984 -5510.4063 434019.5000
v  128827.3281 -5510.4063 290935.7813
v  128827.3281 -5510.4063 434019.5000
v  250064.2500 -5510.4063 290935.7813
v  250064.2500 -5510.4063 434019.5000
v  371301.1875 -5510.4063 290935.7813
v  371301.1875 -5510.4063 434019.5000
v  -113646.5313 -5510.4063 147852.0625
v  7590.3984 -5510.4063 147852.0625
v  128827.3281 -5510.4063 147852.0625
v  250064.2500 -5510.4063 147852.0625
v  371301.1875 -5510.4063 147852.0625
v  -113646.5313 -5510.4063 4768.3438
v  7590.3984 -5510.4063 4768.3438
v  128827.3281 -5510.4063 4768.3438
v  250064.2500 -5510.4063 4768.3438
v  371301.1875 -5510.4063 4768.3438
v  -113646.5313 -5510.4063 -138315.3750
v  7590.3984 -5510.4063 -138315.3750
v  128827.3281 -5510.4063 -138315.3750
v  250064.2500 -5510.4063 -138315.3750
v  371301.1875 -5510.4063 -138315.3750
# 25 vertices

vn 0.0000 1.0000 -0.0000
# 1 vertex normals

vt 0.0000 0.2500 0.0000
vt 0.0000 0.0000 0.0000
vt 0.2500 0.2500 0.0000
vt 0.2500 0.0000 0.0000
vt 0.5000 0.2500 0.0000
vt 0.5000 0.0000 0.0000
vt 0.7500 0.2500 0.0000
vt 0.7500 0.0000 0.0000
vt 1.0000 0.2500 0.0000
vt 1.0000 0.0000 0.0000
vt 0.0000 0.5000 0.0000
vt 0.2500 0.5000 0.0000
vt 0.5000 0.5000 0.0000
vt 0.7500 0.5000 0.0000
vt 1.0000 0.5000 0.0000
vt 0.0000 0.7500 0.0000
vt 0.2500 0.7500 0.0000
vt 0.5000 0.7500 0.0000
vt 0.7500 0.7500 0.0000
vt 1.0000 0.7500 0.0000
vt 0.0000 1.0000 0.0000
vt 0.2500 1.0000 0.0000
vt 0.5000 1.0000 0.0000
vt 0.7500 1.0000 0.0000
vt 1.0000 1.0000 0.0000
# 25 texture coords

o Plane002
g Plane002
usemtl 02___Default
s 1
f 1/1/1 2/2/1 3/3/1 
f 4/4/1 3/3/1 2/2/1 
f 3/3/1 4/4/1 5/5/1 
f 6/6/1 5/5/1 4/4/1 
f 5/5/1 6/6/1 7/7/1 
f 8/8/1 7/7/1 6/6/1 
f 7/7/1 8/8/1 9/9/1 
f 10/10/1 9/9/1 8/8/1 
f 11/11/1 1/1/1 12/12/1 
f 3/3/1 12/12/1 1/1/1 
f 12/12/1 3/3/1 13/13/1 
f 5/5/1 13/13/1 3/3/1 
f 13/13/1 5/5/1 14/14/1 
f 7/7/1 14/14/1 5/5/1 
f 14/14/1 7/7/1 15/15/1 
f 9/9/1 15/15/1 7/7/1 
f 16/16/1 11/11/1 17/17/1 
f 12/12/1 17/17/1 11/11/1 
f 17/17/1 12/12/1 18/18/1 
f 13/13/1 18/18/1 12/12/1 
f 18/18/1 13/13/1 19/19/1 
f 14/14/1 19/19/1 13/13/1 
f 19/19/1 14/14/1 20/20/1 
f 15/15/1 20/20/1 14/14/1 
f 21/21/1 16/16/1 22/22/1 
f 17/17/1 22/22/1 16/16/1 
f 22/22/1 17/17/1 23/23/1 
f 18/18/1 23/23/1 17/17/1 
f 23/23/1 18/18/1 24/24/1 
f 19/19/1 24/24/1 18/18/1 
f 24/24/1 19/19/1 25/25/1 
f 20/20/1 25/25/1 19/19/1 
# 32 faces

